<svg width="26" height="26" viewBox="0 0 26 26" fill="none" xmlns="http://www.w3.org/2000/svg">
<path d="M14.625 10.5627C14.625 10.114 14.2612 9.75022 13.8125 9.75022H7.3125C6.86377 9.75022 6.5 10.114 6.5 10.5627C6.5 11.0114 6.86377 11.3752 7.3125 11.3752H13.8125C14.2612 11.3752 14.625 11.0114 14.625 10.5627Z" fill="#6D6F8A"/>
<path d="M13.5417 13.8127C13.5417 13.364 13.1779 13.0002 12.7292 13.0002H7.3125C6.86377 13.0002 6.5 13.364 6.5 13.8127C6.5 14.2614 6.86377 14.6252 7.3125 14.6252H12.7292C13.1779 14.6252 13.5417 14.2614 13.5417 13.8127Z" fill="#6D6F8A"/>
<path d="M13.8125 16.2502C14.2612 16.2502 14.625 16.614 14.625 17.0627C14.625 17.5114 14.2612 17.8752 13.8125 17.8752H7.3125C6.86377 17.8752 6.5 17.5114 6.5 17.0627C6.5 16.614 6.86377 16.2502 7.3125 16.2502H13.8125Z" fill="#6D6F8A"/>
<path fill-rule="evenodd" clip-rule="evenodd" d="M6.5 23.5627H20.5833C22.2287 23.5627 23.5625 22.2289 23.5625 20.5836V14.6252C23.5625 14.1765 23.1987 13.8127 22.75 13.8127H19.2292V5.35535C19.2292 3.81333 17.4862 2.91636 16.2314 3.81264L16.0418 3.9481C15.1962 4.55205 14.0509 4.55002 13.2014 3.94323C11.7889 2.93429 9.87777 2.93429 8.46524 3.94323C7.61574 4.55002 6.47043 4.55205 5.6249 3.9481L5.43526 3.81264C4.18047 2.91636 2.4375 3.81333 2.4375 5.35535V19.5002C2.4375 21.7439 4.25634 23.5627 6.5 23.5627ZM9.40976 5.26555C10.2573 4.66018 11.4094 4.66018 12.2569 5.26555C13.6674 6.27307 15.5718 6.28077 16.9863 5.27041L17.1759 5.13496C17.3552 5.00692 17.6042 5.13506 17.6042 5.35535V20.5836C17.6042 21.0712 17.7213 21.5314 17.929 21.9377H6.5C5.15381 21.9377 4.0625 20.8464 4.0625 19.5002V5.35535C4.0625 5.13506 4.3115 5.00692 4.49075 5.13496L4.68039 5.27041C6.09489 6.28077 7.99922 6.27307 9.40976 5.26555ZM19.2292 20.5836V15.4377H21.9375V20.5836C21.9375 21.3314 21.3312 21.9377 20.5833 21.9377C19.8354 21.9377 19.2292 21.3314 19.2292 20.5836Z" fill="#6D6F8A"/>
</svg>
