<svg width="25" height="25" viewBox="0 0 25 25" fill="none" xmlns="http://www.w3.org/2000/svg">
<path fill-rule="evenodd" clip-rule="evenodd" d="M19.9456 5.46891H5.55748L4.32813 3.26537C4.19014 3.01803 3.9291 2.86475 3.64587 2.86475H2.08337C1.6519 2.86475 1.30212 3.21452 1.30212 3.646C1.30212 4.07747 1.6519 4.42725 2.08337 4.42725H3.18712L4.40035 6.60188L7.19834 12.7927L7.20121 12.7991L7.44765 13.3443L4.63844 16.3408C4.43645 16.5563 4.37322 16.8672 4.47503 17.1445C4.57683 17.4217 4.82626 17.6178 5.11969 17.6514L7.68024 17.944C10.883 18.31 14.1171 18.31 17.3199 17.944L19.8804 17.6514C20.3091 17.6024 20.6169 17.2151 20.5679 16.7865C20.5189 16.3578 20.1317 16.05 19.703 16.099L17.1425 16.3916C14.0576 16.7442 10.9426 16.7442 7.85766 16.3916L6.84149 16.2755L8.90334 14.0762C8.92329 14.0549 8.94181 14.0328 8.95892 14.01L9.7431 14.112C10.842 14.255 11.9528 14.283 13.0575 14.1957C15.634 13.9919 18.0219 12.7659 19.6891 10.7909L20.2912 10.0775C20.3115 10.0536 20.3302 10.0284 20.3474 10.0022L21.4697 8.29192C22.2652 7.07967 21.3955 5.46891 19.9456 5.46891ZM9.01699 12.4419C8.84469 12.4195 8.69611 12.31 8.62357 12.1523L8.62217 12.1492L6.30914 7.03141H19.9456C20.1527 7.03141 20.277 7.26152 20.1633 7.4347L19.0669 9.10561L18.4951 9.783C17.0971 11.4391 15.0948 12.4672 12.9343 12.638C11.9378 12.7168 10.9359 12.6916 9.94471 12.5626L9.01699 12.4419Z" fill="#767892"/>
<path d="M6.77088 19.271C5.90793 19.271 5.20838 19.9706 5.20838 20.8335C5.20838 21.6964 5.90793 22.396 6.77088 22.396C7.63382 22.396 8.33338 21.6964 8.33338 20.8335C8.33338 19.9706 7.63382 19.271 6.77088 19.271Z" fill="#767892"/>
<path d="M16.6667 20.8335C16.6667 19.9706 17.3663 19.271 18.2292 19.271C19.0922 19.271 19.7917 19.9706 19.7917 20.8335C19.7917 21.6964 19.0922 22.396 18.2292 22.396C17.3663 22.396 16.6667 21.6964 16.6667 20.8335Z" fill="#767892"/>
<path fill-rule="evenodd" clip-rule="evenodd" d="M19.9456 5.46891H5.55748L4.32813 3.26537C4.19014 3.01803 3.9291 2.86475 3.64587 2.86475H2.08337C1.6519 2.86475 1.30212 3.21452 1.30212 3.646C1.30212 4.07747 1.6519 4.42725 2.08337 4.42725H3.18712L4.40035 6.60188L7.19834 12.7927L7.20121 12.7991L7.44765 13.3443L4.63844 16.3408C4.43645 16.5563 4.37322 16.8672 4.47503 17.1445C4.57683 17.4217 4.82626 17.6178 5.11969 17.6514L7.68024 17.944C10.883 18.31 14.1171 18.31 17.3199 17.944L19.8804 17.6514C20.3091 17.6024 20.6169 17.2151 20.5679 16.7865C20.5189 16.3578 20.1317 16.05 19.703 16.099L17.1425 16.3916C14.0576 16.7442 10.9426 16.7442 7.85766 16.3916L6.84149 16.2755L8.90334 14.0762C8.92329 14.0549 8.94181 14.0328 8.95892 14.01L9.7431 14.112C10.842 14.255 11.9528 14.283 13.0575 14.1957C15.634 13.9919 18.0219 12.7659 19.6891 10.7909L20.2912 10.0775C20.3115 10.0536 20.3302 10.0284 20.3474 10.0022L21.4697 8.29192C22.2652 7.07967 21.3955 5.46891 19.9456 5.46891ZM9.01699 12.4419C8.84469 12.4195 8.69611 12.31 8.62357 12.1523L8.62217 12.1492L6.30914 7.03141H19.9456C20.1527 7.03141 20.277 7.26152 20.1633 7.4347L19.0669 9.10561L18.4951 9.783C17.0971 11.4391 15.0948 12.4672 12.9343 12.638C11.9378 12.7168 10.9359 12.6916 9.94471 12.5626L9.01699 12.4419Z" stroke="#767892" stroke-linecap="round" stroke-linejoin="round"/>
<path d="M6.77088 19.271C5.90793 19.271 5.20838 19.9706 5.20838 20.8335C5.20838 21.6964 5.90793 22.396 6.77088 22.396C7.63382 22.396 8.33338 21.6964 8.33338 20.8335C8.33338 19.9706 7.63382 19.271 6.77088 19.271Z" stroke="#767892" stroke-linecap="round" stroke-linejoin="round"/>
<path d="M16.6667 20.8335C16.6667 19.9706 17.3663 19.271 18.2292 19.271C19.0922 19.271 19.7917 19.9706 19.7917 20.8335C19.7917 21.6964 19.0922 22.396 18.2292 22.396C17.3663 22.396 16.6667 21.6964 16.6667 20.8335Z" stroke="#767892" stroke-linecap="round" stroke-linejoin="round"/>
</svg>
