<svg width="18" height="13" viewBox="0 0 18 13" fill="none" xmlns="http://www.w3.org/2000/svg">
<path d="M7.24767 2.01838C7.62599 1.64006 7.62599 1.02668 7.24767 0.648364C6.86935 0.270044 6.25597 0.270044 5.87765 0.648364L0.710986 5.81503C0.521826 6.00419 0.427246 6.25211 0.427246 6.50004C0.427246 6.63139 0.453388 6.75664 0.500754 6.87086C0.548028 6.98512 0.618106 7.09217 0.710986 7.18505L5.87765 12.3517C6.25597 12.73 6.86935 12.73 7.24767 12.3517C7.62599 11.9734 7.62599 11.36 7.24767 10.9817L3.73477 7.46879H16.2502C16.7852 7.46879 17.2189 7.03507 17.2189 6.50004C17.2189 5.96501 16.7852 5.53129 16.2502 5.53129H3.73477L7.24767 2.01838Z" fill="#6D6F8A"/>
</svg>
