<svg width="20" height="20" viewBox="0 0 20 20" fill="none" xmlns="http://www.w3.org/2000/svg">
<path d="M3.33337 5.83333H16.6667H3.33337ZM13.3334 5.83333V3.33333C13.3334 3.11232 13.2456 2.90036 13.0893 2.74408C12.933 2.5878 12.7211 2.5 12.5 2.5H7.50004C7.27903 2.5 7.06707 2.5878 6.91078 2.74408C6.7545 2.90036 6.66671 3.11232 6.66671 3.33333V5.83333H13.3334ZM15 16.6667V5.83333H5.00004V16.6667C5.00004 16.8877 5.08784 17.0996 5.24412 17.2559C5.4004 17.4122 5.61236 17.5 5.83337 17.5H14.1667C14.3877 17.5 14.5997 17.4122 14.756 17.2559C14.9122 17.0996 15 16.8877 15 16.6667Z" stroke="#AAADC6" stroke-width="2" stroke-linecap="round" stroke-linejoin="round"/>
</svg>
