<svg width="14" height="14" viewBox="0 0 14 14" fill="none" xmlns="http://www.w3.org/2000/svg">
<path d="M7.89321 7L12.815 2.07817C13.0617 1.83152 13.0617 1.43163 12.815 1.18499C12.5684 0.938336 12.1685 0.938336 11.9218 1.18499L6.99998 6.10682L2.07817 1.18499C1.83151 0.938336 1.43162 0.938336 1.18499 1.18499C0.93836 1.43165 0.938336 1.83154 1.18499 2.07817L6.10681 7L1.18499 11.9218C0.938336 12.1685 0.938336 12.5684 1.18499 12.815C1.43165 13.0617 1.83154 13.0616 2.07817 12.815L6.99998 7.89318L11.9218 12.815C12.1684 13.0617 12.5683 13.0616 12.815 12.815C13.0616 12.5684 13.0616 12.1685 12.815 11.9218L7.89321 7Z" fill="#767892" stroke="#767892"/>
</svg>
