<svg width="30" height="30" viewBox="0 0 30 30" fill="none" xmlns="http://www.w3.org/2000/svg">
<circle cx="15" cy="15" r="14.25" fill="#FFF2DC" stroke="#FFC768" stroke-width="1.5"/>
<path d="M18.5507 11.4492C18.5507 12.1658 18.3382 12.8663 17.94 13.4622C17.5419 14.058 16.9761 14.5224 16.314 14.7966C15.652 15.0709 14.9235 15.1426 14.2206 15.0028C13.5178 14.863 12.8722 14.5179 12.3655 14.0112C11.8588 13.5045 11.5137 12.8589 11.3739 12.1561C11.2341 11.4533 11.3059 10.7248 11.5801 10.0627C11.8543 9.40065 12.3187 8.83479 12.9145 8.43667C13.5104 8.03855 14.2109 7.82605 14.9275 7.82605C15.8884 7.82605 16.81 8.20778 17.4895 8.88726C18.1689 9.56674 18.5507 10.4883 18.5507 11.4492ZM15.6521 15.0724H14.2028C12.8575 15.0724 11.5673 15.6068 10.6161 16.5581C9.66479 17.5094 9.13037 18.7996 9.13037 20.1449V20.1449C9.13037 20.3371 9.20672 20.5214 9.34261 20.6573C9.47851 20.7932 9.66282 20.8695 9.85501 20.8695H19.9999C20.1921 20.8695 20.3764 20.7932 20.5123 20.6573C20.6482 20.5214 20.7246 20.3371 20.7246 20.1449C20.7246 18.7996 20.1902 17.5094 19.2389 16.5581C18.2876 15.6068 16.9974 15.0724 15.6521 15.0724V15.0724Z" stroke="#FCB641" stroke-width="1.5" stroke-linecap="round" stroke-linejoin="round"/>
</svg>
