<svg width="20" height="22" viewBox="0 0 20 22" fill="none" xmlns="http://www.w3.org/2000/svg">
<path fill-rule="evenodd" clip-rule="evenodd" d="M3.771 3.95833C3.771 2.01383 5.34733 0.4375 7.29183 0.4375C8.38082 0.4375 9.35433 0.931898 10.0002 1.70848C10.646 0.931898 11.6195 0.4375 12.7085 0.4375C14.653 0.4375 16.2293 2.01383 16.2293 3.95833C16.2293 4.65635 16.0262 5.30692 15.6758 5.85417H16.5002C18.1455 5.85417 19.4793 7.18799 19.4793 8.83333V11C19.4793 11.8712 18.8917 12.6051 18.0912 12.8271C18.2473 14.8059 18.1569 16.7976 17.8213 18.7564C17.6208 19.926 16.6709 20.822 15.4916 20.9538L14.5009 21.0645C11.5097 21.3988 8.49061 21.3988 5.49943 21.0645L4.50875 20.9538C3.32942 20.822 2.37948 19.926 2.17905 18.7564C1.84341 16.7976 1.75301 14.8059 1.90908 12.8271C1.10859 12.6051 0.520996 11.8712 0.520996 11V8.83333C0.520996 7.18799 1.85481 5.85417 3.50016 5.85417H4.32448C3.97412 5.30692 3.771 4.65635 3.771 3.95833ZM9.18766 3.95833C9.18766 2.91129 8.33887 2.0625 7.29183 2.0625C6.24479 2.0625 5.396 2.91129 5.396 3.95833C5.396 5.00537 6.24479 5.85417 7.29183 5.85417C8.33887 5.85417 9.18766 5.00537 9.18766 3.95833ZM12.7085 5.85417C13.7555 5.85417 14.6043 5.00537 14.6043 3.95833C14.6043 2.91129 13.7555 2.0625 12.7085 2.0625C11.6615 2.0625 10.8127 2.91129 10.8127 3.95833C10.8127 5.00537 11.6615 5.85417 12.7085 5.85417ZM2.146 8.83333C2.146 8.08545 2.75228 7.47917 3.50016 7.47917H9.18766V11.2708H2.41683C2.26725 11.2708 2.146 11.1496 2.146 11V8.83333ZM10.8127 12.8958H16.4665C16.6185 14.7598 16.5358 16.6366 16.2196 18.4819C16.1415 18.938 15.771 19.2875 15.3111 19.3389L14.3204 19.4496C13.1544 19.5799 11.9839 19.6573 10.8127 19.6818V12.8958ZM10.8127 11.2708H17.5835C17.7331 11.2708 17.8543 11.1496 17.8543 11V8.83333C17.8543 8.08545 17.248 7.47917 16.5002 7.47917H10.8127V11.2708ZM9.18766 12.8958V19.6818C8.01639 19.6573 6.84595 19.5799 5.67993 19.4496L4.68925 19.3389C4.22933 19.2875 3.85887 18.938 3.78071 18.4819C3.46449 16.6366 3.38179 14.7598 3.53378 12.8958H9.18766Z" fill="#6D6F8A"/>
</svg>
