<svg width="22" height="22" viewBox="0 0 22 22" fill="none" xmlns="http://www.w3.org/2000/svg">
<path d="M19.25 19.25L15.2717 15.2717M17.4167 10.0833C17.4167 11.5337 16.9866 12.9516 16.1808 14.1575C15.375 15.3635 14.2297 16.3034 12.8897 16.8585C11.5497 17.4135 10.0752 17.5587 8.65267 17.2758C7.23015 16.9928 5.92347 16.2944 4.89789 15.2688C3.8723 14.2432 3.17387 12.9365 2.89091 11.514C2.60795 10.0915 2.75318 8.61698 3.30822 7.27699C3.86326 5.937 4.80319 4.79169 6.00915 3.98589C7.21512 3.18009 8.63294 2.75 10.0833 2.75C12.0283 2.75 13.8935 3.52262 15.2688 4.89788C16.6441 6.27315 17.4167 8.13841 17.4167 10.0833Z" stroke="#FAB136" stroke-width="2" stroke-linecap="round" stroke-linejoin="round"/>
</svg>
