<svg width="23" height="22" viewBox="0 0 23 22" fill="none" xmlns="http://www.w3.org/2000/svg">
<path fill-rule="evenodd" clip-rule="evenodd" d="M11.5 2.07922L9.28722 4.36872C9.05169 4.6124 8.72731 4.75002 8.3884 4.75002H5.25002V7.8884C5.25002 8.22731 5.1124 8.55169 4.86872 8.78722L2.57922 11L4.86872 13.2128C5.11241 13.4483 5.25002 13.7727 5.25002 14.1116V17.25H8.3884C8.72731 17.25 9.05169 17.3876 9.28721 17.6313L11.5 19.9208L13.7128 17.6313C13.9483 17.3876 14.2727 17.25 14.6116 17.25H17.75V14.1116C17.75 13.7727 17.8876 13.4483 18.1313 13.2128L20.4208 11L18.1313 8.78722C17.8876 8.5517 17.75 8.22732 17.75 7.88841V4.75002H14.6116C14.2727 4.75002 13.9483 4.61241 13.7128 4.36872L11.5 2.07922ZM10.6012 0.850783C11.0926 0.342382 11.9075 0.342383 12.3988 0.850783L14.7177 3.25002H18C18.6904 3.25002 19.25 3.80966 19.25 4.50002V7.78235L21.6493 10.1012C22.1576 10.5926 22.1577 11.4075 21.6493 11.8988L19.25 14.2177V17.5C19.25 18.1904 18.6904 18.75 18 18.75H14.7177L12.3988 21.1492C11.9075 21.6576 11.0926 21.6576 10.6012 21.1492L8.28235 18.75H5.00002C4.30966 18.75 3.75002 18.1904 3.75002 17.5V14.2177L1.35078 11.8988C0.842383 11.4075 0.842382 10.5926 1.35078 10.1012L3.75002 7.78235V4.50002C3.75002 3.80966 4.30966 3.25002 5.00002 3.25002H8.28235L10.6012 0.850783Z" fill="#606279"/>
<path fill-rule="evenodd" clip-rule="evenodd" d="M6.75002 11C6.75002 8.37666 8.87666 6.25002 11.5 6.25002C14.1234 6.25002 16.25 8.37666 16.25 11C16.25 13.6234 14.1234 15.75 11.5 15.75C8.87666 15.75 6.75002 13.6234 6.75002 11ZM11.5 7.75002C9.70509 7.75002 8.25002 9.20509 8.25002 11C8.25002 12.7949 9.70509 14.25 11.5 14.25C13.2949 14.25 14.75 12.7949 14.75 11C14.75 9.20509 13.2949 7.75002 11.5 7.75002Z" fill="#606279"/>
</svg>
