<svg width="19" height="21" viewBox="0 0 19 21" fill="none" xmlns="http://www.w3.org/2000/svg">
<path fill-rule="evenodd" clip-rule="evenodd" d="M11.0578 3.53423C10.1873 2.69887 8.81275 2.69887 7.94218 3.53423L3.31574 7.97357C3.20239 8.08234 3.12614 8.22402 3.0978 8.37854C2.54367 11.4004 2.50277 14.494 2.97681 17.5295L3.08933 18.25H6.06579V12.0387C6.06579 11.6244 6.40158 11.2887 6.81579 11.2887H12.1842C12.5984 11.2887 12.9342 11.6244 12.9342 12.0387V18.25H15.9107L16.0232 17.5295C16.4972 14.494 16.4563 11.4004 15.9022 8.37854C15.8739 8.22402 15.7976 8.08234 15.6843 7.97357L11.0578 3.53423ZM6.90363 2.45191C8.35458 1.05965 10.6454 1.05965 12.0964 2.45191L16.7228 6.89125C17.0634 7.21804 17.2925 7.64373 17.3776 8.10799C17.9621 11.2956 18.0053 14.559 17.5052 17.7609L17.3245 18.9184C17.2497 19.3971 16.8374 19.75 16.3529 19.75H12.1842C11.77 19.75 11.4342 19.4142 11.4342 19V12.7887H7.56579V19C7.56579 19.4142 7.23 19.75 6.81579 19.75H2.64706C2.16258 19.75 1.75029 19.3971 1.67554 18.9184L1.49478 17.7609C0.994728 14.559 1.03788 11.2956 1.62241 8.10799C1.70754 7.64373 1.93662 7.21804 2.27719 6.89125L6.90363 2.45191Z" fill="#FF8A00" stroke="#FF8A00"/>
</svg>
