<svg width="17" height="19" viewBox="0 0 17 19" fill="none" xmlns="http://www.w3.org/2000/svg">
<path fill-rule="evenodd" clip-rule="evenodd" d="M10.0578 2.53472C9.18719 1.69936 7.81269 1.69936 6.94212 2.53472L2.31568 6.97405C2.20233 7.08282 2.12608 7.22451 2.09774 7.37903C1.54361 10.4009 1.50271 13.4945 1.97675 16.53L2.08927 17.2505H5.06573V11.0391C5.06573 10.6249 5.40152 10.2891 5.81573 10.2891H11.1842C11.5984 10.2891 11.9342 10.6249 11.9342 11.0391V17.2505H14.9106L15.0231 16.53C15.4972 13.4945 15.4563 10.4009 14.9021 7.37903C14.8738 7.22451 14.7976 7.08282 14.6842 6.97406L10.0578 2.53472ZM5.90357 1.4524C7.35451 0.0601368 9.64536 0.0601368 11.0963 1.4524L15.7227 5.89174C16.0633 6.21853 16.2924 6.64422 16.3775 7.10848C16.9621 10.2961 17.0052 13.5594 16.5052 16.7614L16.3244 17.9189C16.2496 18.3976 15.8374 18.7505 15.3529 18.7505H11.1842C10.7699 18.7505 10.4342 18.4147 10.4342 18.0005V11.7891H6.56573V18.0005C6.56573 18.4147 6.22994 18.7505 5.81573 18.7505H1.647C1.16252 18.7505 0.750233 18.3976 0.675478 17.9189L0.494715 16.7614C-0.0053331 13.5594 0.0378142 10.2961 0.622344 7.10848C0.707477 6.64422 0.936561 6.21853 1.27713 5.89173L5.90357 1.4524Z" fill="#606279"/>
</svg>
