<svg width="19" height="20" viewBox="0 0 19 20" fill="none" xmlns="http://www.w3.org/2000/svg">
<path d="M7.5 12.2501C7.91421 12.2501 8.25 12.5859 8.25 13.0001V15.0001C8.25 15.4143 7.91421 15.7501 7.5 15.7501C7.08579 15.7501 6.75 15.4143 6.75 15.0001V13.0001C6.75 12.5859 7.08579 12.2501 7.5 12.2501Z" fill="#FF8A00"/>
<path d="M12.25 13.0001C12.25 12.5859 11.9142 12.2501 11.5 12.2501C11.0858 12.2501 10.75 12.5859 10.75 13.0001V15.0001C10.75 15.4143 11.0858 15.7501 11.5 15.7501C11.9142 15.7501 12.25 15.4143 12.25 15.0001V13.0001Z" fill="#FF8A00"/>
<path fill-rule="evenodd" clip-rule="evenodd" d="M7.14952 2.37513C7.35662 2.01641 7.23372 1.55771 6.875 1.35061C6.51628 1.1435 6.05759 1.26641 5.85048 1.62513L3.85048 5.08923C3.82052 5.14112 3.79746 5.19511 3.78103 5.25013H3.5C1.98122 5.25013 0.75 6.48134 0.75 8.00013C0.75 8.85925 1.14397 9.62637 1.76109 10.1307L2.42803 14.7154L2.87478 16.8085C3.14244 18.0626 4.16623 19.0152 5.43636 19.1919C8.13247 19.5671 10.8675 19.5671 13.5636 19.1919C14.8338 19.0152 15.8576 18.0626 16.1252 16.8085L16.572 14.7154L17.2389 10.1307C17.856 9.62637 18.25 8.85925 18.25 8.00013C18.25 6.48134 17.0188 5.25013 15.5 5.25013H15.219C15.2025 5.19511 15.1795 5.14112 15.1495 5.08923L13.1495 1.62513C12.9424 1.26641 12.4837 1.1435 12.125 1.35061C11.7663 1.55771 11.6434 2.01641 11.8505 2.37513L13.5104 5.25013H5.48963L7.14952 2.37513ZM15.6335 10.7469C15.5892 10.7491 15.5447 10.7501 15.5 10.7501H3.5C3.45525 10.7501 3.41076 10.7491 3.36653 10.7469L3.9053 14.4506L4.34174 16.4954C4.47772 17.1325 4.99783 17.6165 5.64308 17.7062C8.20203 18.0623 10.798 18.0623 13.3569 17.7062C14.0022 17.6165 14.5223 17.1325 14.6583 16.4954L15.0947 14.4506L15.6335 10.7469ZM2.25 8.00013C2.25 7.30977 2.80964 6.75013 3.5 6.75013H15.5C16.1904 6.75013 16.75 7.30977 16.75 8.00013C16.75 8.69048 16.1904 9.25013 15.5 9.25013H3.5C2.80964 9.25013 2.25 8.69048 2.25 8.00013Z" fill="#FF8A00"/>
<path d="M7.5 12.2501C7.91421 12.2501 8.25 12.5859 8.25 13.0001V15.0001C8.25 15.4143 7.91421 15.7501 7.5 15.7501C7.08579 15.7501 6.75 15.4143 6.75 15.0001V13.0001C6.75 12.5859 7.08579 12.2501 7.5 12.2501Z" stroke="#FF8A00" stroke-linecap="round"/>
<path d="M12.25 13.0001C12.25 12.5859 11.9142 12.2501 11.5 12.2501C11.0858 12.2501 10.75 12.5859 10.75 13.0001V15.0001C10.75 15.4143 11.0858 15.7501 11.5 15.7501C11.9142 15.7501 12.25 15.4143 12.25 15.0001V13.0001Z" stroke="#FF8A00" stroke-linecap="round"/>
<path fill-rule="evenodd" clip-rule="evenodd" d="M7.14952 2.37513C7.35662 2.01641 7.23372 1.55771 6.875 1.35061C6.51628 1.1435 6.05759 1.26641 5.85048 1.62513L3.85048 5.08923C3.82052 5.14112 3.79746 5.19511 3.78103 5.25013H3.5C1.98122 5.25013 0.75 6.48134 0.75 8.00013C0.75 8.85925 1.14397 9.62637 1.76109 10.1307L2.42803 14.7154L2.87478 16.8085C3.14244 18.0626 4.16623 19.0152 5.43636 19.1919C8.13247 19.5671 10.8675 19.5671 13.5636 19.1919C14.8338 19.0152 15.8576 18.0626 16.1252 16.8085L16.572 14.7154L17.2389 10.1307C17.856 9.62637 18.25 8.85925 18.25 8.00013C18.25 6.48134 17.0188 5.25013 15.5 5.25013H15.219C15.2025 5.19511 15.1795 5.14112 15.1495 5.08923L13.1495 1.62513C12.9424 1.26641 12.4837 1.1435 12.125 1.35061C11.7663 1.55771 11.6434 2.01641 11.8505 2.37513L13.5104 5.25013H5.48963L7.14952 2.37513ZM15.6335 10.7469C15.5892 10.7491 15.5447 10.7501 15.5 10.7501H3.5C3.45525 10.7501 3.41076 10.7491 3.36653 10.7469L3.9053 14.4506L4.34174 16.4954C4.47772 17.1325 4.99783 17.6165 5.64308 17.7062C8.20203 18.0623 10.798 18.0623 13.3569 17.7062C14.0022 17.6165 14.5223 17.1325 14.6583 16.4954L15.0947 14.4506L15.6335 10.7469ZM2.25 8.00013C2.25 7.30977 2.80964 6.75013 3.5 6.75013H15.5C16.1904 6.75013 16.75 7.30977 16.75 8.00013C16.75 8.69048 16.1904 9.25013 15.5 9.25013H3.5C2.80964 9.25013 2.25 8.69048 2.25 8.00013Z" stroke="#FF8A00" stroke-linecap="round"/>
</svg>
