<svg width="19" height="19" viewBox="0 0 19 19" fill="none" xmlns="http://www.w3.org/2000/svg">
<path d="M7.5 11.25C7.91421 11.25 8.25 11.5858 8.25 12V14C8.25 14.4142 7.91421 14.75 7.5 14.75C7.08579 14.75 6.75 14.4142 6.75 14V12C6.75 11.5858 7.08579 11.25 7.5 11.25Z" fill="#606279"/>
<path d="M12.25 12C12.25 11.5858 11.9142 11.25 11.5 11.25C11.0858 11.25 10.75 11.5858 10.75 12V14C10.75 14.4142 11.0858 14.75 11.5 14.75C11.9142 14.75 12.25 14.4142 12.25 14V12Z" fill="#606279"/>
<path fill-rule="evenodd" clip-rule="evenodd" d="M7.14952 1.375C7.35662 1.01628 7.23372 0.557591 6.875 0.350484C6.51628 0.143377 6.05759 0.266284 5.85048 0.625003L3.85048 4.0891C3.82052 4.141 3.79746 4.19499 3.78103 4.25H3.5C1.98122 4.25 0.75 5.48122 0.75 7C0.75 7.85913 1.14397 8.62625 1.76109 9.13054L2.42803 13.7152L2.87478 15.8084C3.14244 17.0625 4.16623 18.0151 5.43636 18.1918C8.13247 18.567 10.8675 18.567 13.5636 18.1918C14.8338 18.0151 15.8576 17.0625 16.1252 15.8084L16.572 13.7152L17.2389 9.13054C17.856 8.62625 18.25 7.85913 18.25 7C18.25 5.48122 17.0188 4.25 15.5 4.25H15.219C15.2025 4.19499 15.1795 4.141 15.1495 4.0891L13.1495 0.625003C12.9424 0.266284 12.4837 0.143377 12.125 0.350484C11.7663 0.557591 11.6434 1.01628 11.8505 1.375L13.5104 4.25H5.48963L7.14952 1.375ZM15.6335 9.74682C15.5892 9.74894 15.5447 9.75 15.5 9.75H3.5C3.45525 9.75 3.41076 9.74894 3.36653 9.74682L3.9053 13.4504L4.34174 15.4953C4.47772 16.1324 4.99783 16.6163 5.64308 16.7061C8.20203 17.0622 10.798 17.0622 13.3569 16.7061C14.0022 16.6163 14.5223 16.1324 14.6583 15.4953L15.0947 13.4504L15.6335 9.74682ZM2.25 7C2.25 6.30965 2.80964 5.75 3.5 5.75H15.5C16.1904 5.75 16.75 6.30965 16.75 7C16.75 7.69036 16.1904 8.25 15.5 8.25H3.5C2.80964 8.25 2.25 7.69036 2.25 7Z" fill="#606279"/>
</svg>
