<svg width="17" height="19" viewBox="0 0 17 19" fill="none" xmlns="http://www.w3.org/2000/svg">
<path fill-rule="evenodd" clip-rule="evenodd" d="M0.754771 1.72392C0.655544 0.532487 1.99043 -0.12625 2.90674 0.485876L3.20315 0.683886C7.72275 3.70313 11.9526 7.11045 15.8414 10.8647C16.8101 11.7999 15.9559 13.2759 14.7471 13.1464L9.48069 12.5824C8.9445 12.525 8.45039 12.8132 8.24689 13.2623L6.11827 17.9593C5.60418 19.0937 3.91079 18.9882 3.57385 17.7643C2.15908 12.6252 1.22525 7.37299 0.783711 2.07142L0.754771 1.72392ZM2.27176 1.86561L2.27854 1.94692C2.70132 7.02331 3.58352 12.0539 4.91491 16.9807L6.88065 12.6431C7.36109 11.583 8.4845 10.9672 9.64042 11.091L14.4474 11.6058C10.7205 8.0473 6.67944 4.81008 2.36992 1.93117L2.27176 1.86561Z" fill="#606279"/>
</svg>
