<svg width="17" height="21" viewBox="0 0 17 21" fill="none" xmlns="http://www.w3.org/2000/svg">
<path fill-rule="evenodd" clip-rule="evenodd" d="M0.75474 2.72368C0.655513 1.53224 1.9904 0.873506 2.90671 1.48563L3.20312 1.68364C7.72272 4.70288 11.9526 8.11021 15.8414 11.8644C16.8101 12.7997 15.9558 14.2756 14.747 14.1462L9.48066 13.5822C8.94447 13.5248 8.45036 13.813 8.24686 14.262L6.11824 18.959C5.60415 20.0934 3.91076 19.988 3.57382 18.7641C2.15905 13.6249 1.22522 8.37274 0.783681 3.07117L0.75474 2.72368ZM2.27173 2.86536L2.27851 2.94668C2.70129 8.02307 3.58349 13.0536 4.91488 17.9804L6.88062 13.6429C7.36106 12.5827 8.48447 11.9669 9.64039 12.0907L14.4474 12.6055C10.7205 9.04705 6.67941 5.80983 2.36989 2.93093L2.27173 2.86536Z" fill="#FF8A00" stroke="#FF8A00"/>
</svg>
