<svg width="23" height="24" viewBox="0 0 23 24" fill="none" xmlns="http://www.w3.org/2000/svg">
<path fill-rule="evenodd" clip-rule="evenodd" d="M11.5 3.07946L9.28722 5.36896C9.05169 5.61265 8.72731 5.75026 8.3884 5.75026H5.25002V8.88865C5.25002 9.22755 5.1124 9.55193 4.86872 9.78746L2.57922 12.0003L4.86872 14.2131C5.11241 14.4486 5.25002 14.773 5.25002 15.1119V18.2503H8.3884C8.72731 18.2503 9.05169 18.3879 9.28721 18.6316L11.5 20.9211L13.7128 18.6316C13.9483 18.3879 14.2727 18.2503 14.6116 18.2503H17.75V15.1119C17.75 14.773 17.8876 14.4486 18.1313 14.2131L20.4208 12.0003L18.1313 9.78747C17.8876 9.55194 17.75 9.22756 17.75 8.88865V5.75026H14.6116C14.2727 5.75026 13.9483 5.61265 13.7128 5.36896L11.5 3.07946ZM10.6012 1.85103C11.0926 1.34263 11.9075 1.34263 12.3988 1.85103L14.7177 4.25026H18C18.6904 4.25026 19.25 4.8099 19.25 5.50026V8.7826L21.6493 11.1014C22.1576 11.5928 22.1577 12.4077 21.6493 12.8991L19.25 15.2179V18.5003C19.25 19.1906 18.6904 19.7503 18 19.7503H14.7177L12.3988 22.1495C11.9075 22.6579 11.0926 22.6579 10.6012 22.1495L8.28235 19.7503H5.00002C4.30966 19.7503 3.75002 19.1906 3.75002 18.5003V15.2179L1.35078 12.8991C0.842383 12.4077 0.842382 11.5928 1.35078 11.1014L3.75002 8.78259V5.50026C3.75002 4.8099 4.30966 4.25026 5.00002 4.25026H8.28235L10.6012 1.85103Z" fill="#FF8A00"/>
<path fill-rule="evenodd" clip-rule="evenodd" d="M6.75002 12.0003C6.75002 9.37691 8.87666 7.25026 11.5 7.25026C14.1234 7.25026 16.25 9.37691 16.25 12.0003C16.25 14.6236 14.1234 16.7503 11.5 16.7503C8.87666 16.7503 6.75002 14.6236 6.75002 12.0003ZM11.5 8.75026C9.70509 8.75026 8.25002 10.2053 8.25002 12.0003C8.25002 13.7952 9.70509 15.2503 11.5 15.2503C13.2949 15.2503 14.75 13.7952 14.75 12.0003C14.75 10.2053 13.2949 8.75026 11.5 8.75026Z" fill="#FF8A00"/>
<path fill-rule="evenodd" clip-rule="evenodd" d="M11.5 3.07946L9.28722 5.36896C9.05169 5.61265 8.72731 5.75026 8.3884 5.75026H5.25002V8.88865C5.25002 9.22755 5.1124 9.55193 4.86872 9.78746L2.57922 12.0003L4.86872 14.2131C5.11241 14.4486 5.25002 14.773 5.25002 15.1119V18.2503H8.3884C8.72731 18.2503 9.05169 18.3879 9.28721 18.6316L11.5 20.9211L13.7128 18.6316C13.9483 18.3879 14.2727 18.2503 14.6116 18.2503H17.75V15.1119C17.75 14.773 17.8876 14.4486 18.1313 14.2131L20.4208 12.0003L18.1313 9.78747C17.8876 9.55194 17.75 9.22756 17.75 8.88865V5.75026H14.6116C14.2727 5.75026 13.9483 5.61265 13.7128 5.36896L11.5 3.07946ZM10.6012 1.85103C11.0926 1.34263 11.9075 1.34263 12.3988 1.85103L14.7177 4.25026H18C18.6904 4.25026 19.25 4.8099 19.25 5.50026V8.7826L21.6493 11.1014C22.1576 11.5928 22.1577 12.4077 21.6493 12.8991L19.25 15.2179V18.5003C19.25 19.1906 18.6904 19.7503 18 19.7503H14.7177L12.3988 22.1495C11.9075 22.6579 11.0926 22.6579 10.6012 22.1495L8.28235 19.7503H5.00002C4.30966 19.7503 3.75002 19.1906 3.75002 18.5003V15.2179L1.35078 12.8991C0.842383 12.4077 0.842382 11.5928 1.35078 11.1014L3.75002 8.78259V5.50026C3.75002 4.8099 4.30966 4.25026 5.00002 4.25026H8.28235L10.6012 1.85103Z" stroke="#FF8A00"/>
<path fill-rule="evenodd" clip-rule="evenodd" d="M6.75002 12.0003C6.75002 9.37691 8.87666 7.25026 11.5 7.25026C14.1234 7.25026 16.25 9.37691 16.25 12.0003C16.25 14.6236 14.1234 16.7503 11.5 16.7503C8.87666 16.7503 6.75002 14.6236 6.75002 12.0003ZM11.5 8.75026C9.70509 8.75026 8.25002 10.2053 8.25002 12.0003C8.25002 13.7952 9.70509 15.2503 11.5 15.2503C13.2949 15.2503 14.75 13.7952 14.75 12.0003C14.75 10.2053 13.2949 8.75026 11.5 8.75026Z" stroke="#FF8A00"/>
</svg>
