<svg width="23" height="20" viewBox="0 0 23 20" fill="none" xmlns="http://www.w3.org/2000/svg">
<path d="M13.9245 7.83838L9.07534 12.0266C8.45243 11.4885 8.06909 10.7519 8.06909 9.93247C8.06909 8.29362 9.60242 6.96929 11.4999 6.96929C12.4487 6.96929 13.3016 7.30037 13.9245 7.83838Z" stroke="#6D6F8A" stroke-width="1.65541" stroke-linecap="round" stroke-linejoin="round"/>
<path d="M17.0775 4.77583C15.4004 3.68326 13.4837 3.08732 11.5 3.08732C8.11706 3.08732 4.96414 4.80894 2.76956 7.78867C1.90706 8.95573 1.90706 10.9174 2.76956 12.0844C3.52664 13.1108 4.40831 13.9964 5.36664 14.7083" stroke="#6D6F8A" stroke-width="1.65541" stroke-linecap="round" stroke-linejoin="round"/>
<path d="M8.06909 16.1651C9.16159 16.5624 10.3212 16.7776 11.4999 16.7776C14.8828 16.7776 18.0358 15.056 20.2303 12.0762C21.0928 10.9092 21.0928 8.94751 20.2303 7.78045C19.9141 7.35005 19.5691 6.94447 19.2145 6.56373" stroke="#6D6F8A" stroke-width="1.65541" stroke-linecap="round" stroke-linejoin="round"/>
<path d="M14.8638 10.5118C14.6146 11.6788 13.5125 12.6307 12.1613 12.8459" stroke="#6D6F8A" stroke-width="1.65541" stroke-linecap="round" stroke-linejoin="round"/>
<path d="M9.07537 12.0266L1.91663 18.2095" stroke="#6D6F8A" stroke-width="1.65541" stroke-linecap="round" stroke-linejoin="round"/>
<path d="M21.0834 1.65541L13.9247 7.83835" stroke="#6D6F8A" stroke-width="1.65541" stroke-linecap="round" stroke-linejoin="round"/>
</svg>
