<svg width="102" height="135" viewBox="0 0 102 135" fill="none" xmlns="http://www.w3.org/2000/svg">
<path fill-rule="evenodd" clip-rule="evenodd" d="M46.0378 16.9786L57.9791 28.9185C58.5092 29.4486 58.9453 29.6292 59.6934 29.6292L75.535 29.6277C76.2817 29.6292 76.7192 29.4486 77.2493 28.9185L89.1906 16.9771C90.1105 16.0558 91.6127 16.0558 92.5355 16.9786L100.814 25.2571C101.737 26.1769 101.737 27.6791 100.814 28.6004L88.8726 40.5432C85.2604 44.1554 80.6449 46.0697 75.5336 46.0697L59.6934 46.0697C54.582 46.0697 49.9695 44.1569 46.3543 40.5432L34.4145 28.6019C33.4947 27.6806 33.4947 26.1784 34.4145 25.2571L42.6944 16.9786C43.6158 16.0558 45.118 16.0558 46.0378 16.9786Z" fill="#FFF6E1"/>
<path fill-rule="evenodd" clip-rule="evenodd" d="M89.189 118.251L77.2492 106.31C76.7176 105.781 76.2816 105.599 75.5335 105.6L59.6948 105.6C58.9467 105.6 58.5091 105.78 57.9791 106.31L46.0377 118.251C45.1164 119.174 43.6142 119.174 42.6914 118.251L34.4129 109.973C33.4931 109.05 33.4916 107.549 34.4144 106.628L46.3543 94.6879C49.9679 91.0727 54.5835 89.1599 59.6948 89.1614L75.5335 89.1614C80.6448 89.1614 85.2589 91.0712 88.874 94.6864L100.814 106.628C101.735 107.549 101.735 109.05 100.814 109.971L92.5354 118.251C91.6126 119.172 90.1104 119.172 89.189 118.251ZM73.425 132.544C70.2146 135.755 65.0092 135.756 61.8017 132.544C58.5913 129.335 58.5913 124.131 61.8017 120.921C65.0092 117.713 70.2131 117.713 73.4235 120.921C76.634 124.131 76.634 129.335 73.425 132.544Z" fill="#FFF6E1"/>
<path fill-rule="evenodd" clip-rule="evenodd" d="M16.9785 89.1911L28.9198 77.2528C29.4484 76.7227 29.6306 76.2852 29.6291 75.5356L29.6306 59.6969C29.6276 58.9502 29.4499 58.5127 28.9198 57.9826L16.977 46.0398C16.0556 45.117 16.0556 43.6163 16.977 42.6934L25.2569 34.415C26.1783 33.4951 27.6804 33.4951 28.6018 34.4165L40.5431 46.3563C44.1567 49.9714 46.0696 54.5855 46.0696 59.6969L46.0696 75.537C46.0681 80.6454 44.1567 85.261 40.5431 88.8761L28.6018 100.817C27.6819 101.737 26.1783 101.737 25.2569 100.817L16.9785 92.5375C16.0586 91.6161 16.0571 90.1125 16.9785 89.1911ZM2.68525 73.4271C-0.525192 70.2167 -0.526686 65.0113 2.68376 61.8038C5.89421 58.5919 11.0981 58.5934 14.3086 61.8038C17.5175 65.0113 17.519 70.2167 14.3086 73.4271C11.0981 76.6376 5.89421 76.6376 2.68525 73.4271Z" fill="#FFF6E1"/>
<path fill-rule="evenodd" clip-rule="evenodd" d="M61.8033 2.68323C65.0138 -0.525719 70.2162 -0.525719 73.4281 2.68323C76.6385 5.89219 76.6385 11.0976 73.4281 14.308C70.2177 17.5185 65.0153 17.517 61.8033 14.308C58.5944 11.0976 58.5944 5.89219 61.8033 2.68323Z" fill="#FFF6E1"/>
</svg>
