<svg width="353" height="56" viewBox="0 0 353 56" fill="none" xmlns="http://www.w3.org/2000/svg">
<mask id="path-1-inside-1_346_5059" fill="white">
<path fill-rule="evenodd" clip-rule="evenodd" d="M6 0C2.68629 0 0 2.68629 0 6V42C0 45.3137 2.68629 48 6 48H26.5284L31.5967 54.7835C32.7965 56.3893 35.2035 56.3893 36.4033 54.7835L41.4716 48H347C350.314 48 353 45.3137 353 42V6C353 2.68629 350.314 0 347 0H6Z"/>
</mask>
<path fill-rule="evenodd" clip-rule="evenodd" d="M6 0C2.68629 0 0 2.68629 0 6V42C0 45.3137 2.68629 48 6 48H26.5284L31.5967 54.7835C32.7965 56.3893 35.2035 56.3893 36.4033 54.7835L41.4716 48H347C350.314 48 353 45.3137 353 42V6C353 2.68629 350.314 0 347 0H6Z" fill="#FFFCE9"/>
<path d="M26.5284 48L28.1306 46.8029L27.5307 46H26.5284V48ZM31.5967 54.7835L29.9945 55.9805L31.5967 54.7835ZM36.4033 54.7835L38.0055 55.9805L36.4033 54.7835ZM41.4716 48V46H40.4693L39.8694 46.8029L41.4716 48ZM2 6C2 3.79086 3.79086 2 6 2V-2C1.58172 -2 -2 1.58172 -2 6H2ZM2 42V6H-2V42H2ZM6 46C3.79086 46 2 44.2091 2 42H-2C-2 46.4183 1.58172 50 6 50V46ZM26.5284 46H6V50H26.5284V46ZM33.1989 53.5864L28.1306 46.8029L24.9262 49.1971L29.9945 55.9805L33.1989 53.5864ZM34.8011 53.5864C34.4012 54.1216 33.5989 54.1216 33.1989 53.5864L29.9945 55.9805C31.9942 58.6569 36.0058 58.6569 38.0055 55.9805L34.8011 53.5864ZM39.8694 46.8029L34.8011 53.5864L38.0055 55.9805L43.0738 49.1971L39.8694 46.8029ZM347 46H41.4716V50H347V46ZM351 42C351 44.2091 349.209 46 347 46V50C351.418 50 355 46.4183 355 42H351ZM351 6V42H355V6H351ZM347 2C349.209 2 351 3.79086 351 6H355C355 1.58172 351.418 -2 347 -2V2ZM6 2H347V-2H6V2Z" fill="#FDEC94" mask="url(#path-1-inside-1_346_5059)"/>
</svg>
